<mxfile host="app.diagrams.net" modified="2024-06-14T16:49:51.687Z" agent="Mozilla/5.0 (Windows NT 10.0; Win64; x64) AppleWebKit/537.36 (KHTML, like Gecko) Chrome/126.0.0.0 Safari/537.36" etag="i2wZ_mpaxo1qEbaRgAM0" version="24.5.4" type="github">
  <diagram id="C5RBs43oDa-KdzZeNtuy" name="Page-1">
    <mxGraphModel dx="2333" dy="1238" grid="1" gridSize="10" guides="1" tooltips="1" connect="1" arrows="1" fold="1" page="1" pageScale="1" pageWidth="827" pageHeight="1169" math="0" shadow="0">
      <root>
        <mxCell id="WIyWlLk6GJQsqaUBKTNV-0" />
        <mxCell id="WIyWlLk6GJQsqaUBKTNV-1" parent="WIyWlLk6GJQsqaUBKTNV-0" />
        <mxCell id="T5t-N4IE9-94eivXgTof-2" style="edgeStyle=orthogonalEdgeStyle;rounded=0;orthogonalLoop=1;jettySize=auto;html=1;exitX=0.5;exitY=1;exitDx=0;exitDy=0;entryX=0.5;entryY=0;entryDx=0;entryDy=0;" parent="WIyWlLk6GJQsqaUBKTNV-1" source="T5t-N4IE9-94eivXgTof-0" edge="1">
          <mxGeometry relative="1" as="geometry">
            <mxPoint x="484" y="390" as="targetPoint" />
          </mxGeometry>
        </mxCell>
        <mxCell id="pmjtCAjkWFkKiz-13W9b-1" value="20sg" style="edgeLabel;html=1;align=center;verticalAlign=middle;resizable=0;points=[];" vertex="1" connectable="0" parent="T5t-N4IE9-94eivXgTof-2">
          <mxGeometry x="-0.3285" relative="1" as="geometry">
            <mxPoint as="offset" />
          </mxGeometry>
        </mxCell>
        <mxCell id="T5t-N4IE9-94eivXgTof-0" value="Importación de librerías&lt;div&gt;Declarar e inicializar :&lt;/div&gt;&lt;div&gt;-Cámara&lt;/div&gt;&lt;div&gt;-Servomotores&lt;/div&gt;" style="whiteSpace=wrap;html=1;aspect=fixed;" parent="WIyWlLk6GJQsqaUBKTNV-1" vertex="1">
          <mxGeometry x="424" y="230" width="120" height="120" as="geometry" />
        </mxCell>
        <mxCell id="T5t-N4IE9-94eivXgTof-9" style="edgeStyle=orthogonalEdgeStyle;rounded=0;orthogonalLoop=1;jettySize=auto;html=1;exitX=0.5;exitY=1;exitDx=0;exitDy=0;entryX=0.5;entryY=0;entryDx=0;entryDy=0;" parent="WIyWlLk6GJQsqaUBKTNV-1" source="T5t-N4IE9-94eivXgTof-8" target="T5t-N4IE9-94eivXgTof-0" edge="1">
          <mxGeometry relative="1" as="geometry" />
        </mxCell>
        <mxCell id="T5t-N4IE9-94eivXgTof-8" value="Inicio" style="rounded=1;whiteSpace=wrap;html=1;" parent="WIyWlLk6GJQsqaUBKTNV-1" vertex="1">
          <mxGeometry x="444" y="150" width="80" height="40" as="geometry" />
        </mxCell>
        <mxCell id="T5t-N4IE9-94eivXgTof-23" value="" style="edgeStyle=orthogonalEdgeStyle;rounded=0;orthogonalLoop=1;jettySize=auto;html=1;entryX=0.5;entryY=0;entryDx=0;entryDy=0;" parent="WIyWlLk6GJQsqaUBKTNV-1" source="T5t-N4IE9-94eivXgTof-21" target="T5t-N4IE9-94eivXgTof-25" edge="1">
          <mxGeometry relative="1" as="geometry">
            <mxPoint x="484" y="535" as="targetPoint" />
          </mxGeometry>
        </mxCell>
        <mxCell id="T5t-N4IE9-94eivXgTof-24" value="5sg" style="edgeLabel;html=1;align=center;verticalAlign=middle;resizable=0;points=[];" parent="T5t-N4IE9-94eivXgTof-23" vertex="1" connectable="0">
          <mxGeometry x="-0.023" y="-1" relative="1" as="geometry">
            <mxPoint as="offset" />
          </mxGeometry>
        </mxCell>
        <mxCell id="T5t-N4IE9-94eivXgTof-21" value="Se encienden los servomotores" style="whiteSpace=wrap;html=1;aspect=fixed;" parent="WIyWlLk6GJQsqaUBKTNV-1" vertex="1">
          <mxGeometry x="444" y="390" width="80" height="80" as="geometry" />
        </mxCell>
        <mxCell id="T5t-N4IE9-94eivXgTof-37" style="edgeStyle=orthogonalEdgeStyle;rounded=0;orthogonalLoop=1;jettySize=auto;html=1;entryX=0.5;entryY=0;entryDx=0;entryDy=0;" parent="WIyWlLk6GJQsqaUBKTNV-1" source="T5t-N4IE9-94eivXgTof-25" target="T5t-N4IE9-94eivXgTof-31" edge="1">
          <mxGeometry relative="1" as="geometry" />
        </mxCell>
        <mxCell id="T5t-N4IE9-94eivXgTof-25" value="Inicia la cámara para tomar capturas" style="whiteSpace=wrap;html=1;aspect=fixed;" parent="WIyWlLk6GJQsqaUBKTNV-1" vertex="1">
          <mxGeometry x="444" y="540" width="80" height="80" as="geometry" />
        </mxCell>
        <mxCell id="T5t-N4IE9-94eivXgTof-42" value="" style="edgeStyle=orthogonalEdgeStyle;rounded=0;orthogonalLoop=1;jettySize=auto;html=1;" parent="WIyWlLk6GJQsqaUBKTNV-1" source="T5t-N4IE9-94eivXgTof-31" target="T5t-N4IE9-94eivXgTof-41" edge="1">
          <mxGeometry relative="1" as="geometry" />
        </mxCell>
        <mxCell id="T5t-N4IE9-94eivXgTof-31" value="Envío de las imágenes- drive" style="shape=parallelogram;perimeter=parallelogramPerimeter;whiteSpace=wrap;html=1;fixedSize=1;" parent="WIyWlLk6GJQsqaUBKTNV-1" vertex="1">
          <mxGeometry x="284" y="605" width="120" height="60" as="geometry" />
        </mxCell>
        <mxCell id="T5t-N4IE9-94eivXgTof-41" value="Fin" style="rounded=1;whiteSpace=wrap;html=1;" parent="WIyWlLk6GJQsqaUBKTNV-1" vertex="1">
          <mxGeometry x="284" y="725" width="120" height="60" as="geometry" />
        </mxCell>
      </root>
    </mxGraphModel>
  </diagram>
</mxfile>
